<svg width="200" height="200" viewBox="0 0 200 200" fill="none" xmlns="http://www.w3.org/2000/svg">
<path d="M162.883 149.617C164.644 151.378 165.634 153.767 165.634 156.258C165.634 158.748 164.644 161.137 162.883 162.898C161.122 164.66 158.733 165.649 156.242 165.649C153.752 165.649 151.363 164.66 149.602 162.898L100 113.281L50.383 162.883C48.6218 164.644 46.2331 165.633 43.7423 165.633C41.2516 165.633 38.8629 164.644 37.1017 162.883C35.3405 161.122 34.3511 158.733 34.3511 156.242C34.3511 153.751 35.3405 151.363 37.1017 149.601L86.7189 99.9999L37.1173 50.3827C35.3561 48.6215 34.3667 46.2328 34.3667 43.7421C34.3667 41.2514 35.3561 38.8627 37.1173 37.1015C38.8785 35.3403 41.2672 34.3508 43.758 34.3508C46.2487 34.3508 48.6374 35.3403 50.3986 37.1015L100 86.7187L149.617 37.0937C151.379 35.3324 153.767 34.343 156.258 34.343C158.749 34.343 161.137 35.3324 162.899 37.0937C164.66 38.8549 165.649 41.2436 165.649 43.7343C165.649 46.225 164.66 48.6137 162.899 50.3749L113.281 99.9999L162.883 149.617Z" fill="black"/>
</svg>
